<?xml version="1.0" encoding="utf-8"?>
<!-- Generator: Adobe Illustrator 22.1.0, SVG Export Plug-In . SVG Version: 6.00 Build 0)  -->
<svg version="1.1" id="Layer_1" xmlns="http://www.w3.org/2000/svg" xmlns:xlink="http://www.w3.org/1999/xlink" x="0px" y="0px"
	 viewBox="0 0 60 60" style="enable-background:new 0 0 60 60;" xml:space="preserve">
<style type="text/css">
	.st0{opacity:0.7;}
	.st1{fill:#567986;}
	.st2{opacity:0.54;}
	.st3{fill:#333333;}
</style>
<g class="st0">
	<g>
		<g>
			<g id="C87aPw.tif_18_">
				<g>
					<path class="st1" d="M18.67,51.58c-0.01,0-0.02,0-0.03,0c-1.14-0.01-2.28-0.01-3.42,0c-0.71,0.02-1.15-0.34-1.34-1
						c-0.15-0.5-0.3-1-0.46-1.49c-0.12-0.38-0.24-0.75-0.35-1.13c-0.04-0.13-0.06-0.16-0.21-0.22c-0.45-0.16-0.89-0.35-1.33-0.54
						c-0.33-0.14-0.66-0.28-0.99-0.41c-0.06-0.03-0.17-0.03-0.21-0.01c-0.78,0.38-1.61,0.81-2.51,1.3c-0.6,0.33-1.17,0.24-1.65-0.25
						c-0.8-0.81-1.6-1.62-2.41-2.42c-0.51-0.49-0.59-1.06-0.24-1.69c0.48-0.87,0.9-1.67,1.28-2.47c0.02-0.04,0.02-0.15,0-0.21
						c-0.31-0.82-0.63-1.6-0.96-2.32c-0.03-0.07-0.13-0.16-0.18-0.18c-0.86-0.3-1.75-0.59-2.65-0.85c-0.68-0.2-1.02-0.66-1.01-1.38
						c0.01-1.12,0.01-2.24,0-3.36c-0.01-0.72,0.33-1.18,1.02-1.38c0.49-0.14,0.97-0.29,1.45-0.45c0.39-0.12,0.78-0.25,1.18-0.37
						c0.14-0.04,0.19-0.08,0.25-0.25c0.13-0.37,0.29-0.73,0.44-1.09c0.15-0.36,0.3-0.72,0.44-1.08c0.04-0.12,0.04-0.29,0-0.36
						C4.37,27.09,3.9,26.23,3.5,25.5c-0.23-0.41-0.36-1.04,0.26-1.65c0.81-0.8,1.62-1.6,2.41-2.42c0.49-0.5,1.07-0.58,1.69-0.24
						c0.67,0.37,1.56,0.85,2.47,1.28c0.05,0.02,0.2,0.03,0.31-0.01c0.71-0.26,1.44-0.56,2.18-0.9c0.09-0.04,0.18-0.13,0.19-0.17
						c0.35-0.99,0.65-1.99,0.88-2.75c0.19-0.64,0.62-0.94,1.3-0.97c1.16,0,2.32,0,3.47,0c0,0,0,0,0,0c0.68,0,1.14,0.35,1.33,1
						c0.27,0.93,0.56,1.84,0.86,2.69c0.02,0.05,0.12,0.16,0.23,0.21c0.72,0.33,1.44,0.63,2.13,0.88c0.14,0.05,0.31,0.04,0.36,0.02
						c0.85-0.4,1.66-0.84,2.42-1.26c0.66-0.36,1.26-0.27,1.78,0.28c0.44,0.46,0.89,0.91,1.34,1.35c0.33,0.33,0.67,0.67,1,1
						c0.15,0.15,0.25,0.32,0.34,0.47l0.26,0.39l-0.19,0.45c-0.06,0.15-0.11,0.28-0.17,0.4l-0.18,0.35
						c-0.35,0.69-0.71,1.38-1.08,2.06c-0.08,0.15-0.08,0.2-0.01,0.35c0.17,0.36,0.32,0.73,0.47,1.11c0.14,0.35,0.29,0.71,0.45,1.05
						c0.05,0.11,0.18,0.24,0.25,0.26c0.89,0.32,1.8,0.6,2.64,0.85c0.66,0.19,1,0.65,1,1.34c-0.01,1.14-0.01,2.28,0,3.42
						c0.01,0.7-0.34,1.16-1.03,1.37c-0.97,0.28-1.84,0.56-2.65,0.85c-0.04,0.02-0.13,0.1-0.17,0.19c-0.35,0.76-0.66,1.52-0.94,2.28
						c-0.03,0.08-0.02,0.21,0,0.26c0.36,0.75,0.78,1.56,1.28,2.47c0.42,0.77,0.11,1.32-0.23,1.65c-0.83,0.81-1.64,1.63-2.45,2.45
						c-0.33,0.34-0.88,0.65-1.65,0.23c-0.89-0.49-1.69-0.91-2.47-1.28c-0.04-0.02-0.17-0.02-0.25,0.01
						c-0.75,0.28-1.51,0.6-2.33,0.97c-0.06,0.03-0.13,0.1-0.15,0.14c-0.3,0.85-0.58,1.74-0.84,2.65
						C19.82,51.23,19.37,51.58,18.67,51.58z M17.02,50.57c0.55,0,1.09,0,1.64,0.01c0.24-0.01,0.32-0.04,0.4-0.31
						c0.27-0.92,0.56-1.83,0.86-2.7c0.12-0.34,0.43-0.61,0.68-0.72c0.84-0.38,1.62-0.7,2.38-0.99c0.27-0.1,0.7-0.14,1.04,0.02
						c0.79,0.38,1.62,0.81,2.52,1.3c0.23,0.13,0.3,0.1,0.45-0.05c0.81-0.83,1.64-1.65,2.47-2.47c0.15-0.15,0.18-0.22,0.05-0.45
						c-0.51-0.93-0.94-1.75-1.3-2.52c-0.14-0.3-0.16-0.71-0.03-1.04c0.29-0.77,0.62-1.56,0.97-2.34c0.11-0.25,0.38-0.59,0.75-0.72
						c0.83-0.29,1.71-0.58,2.7-0.86c0.27-0.08,0.31-0.16,0.31-0.4c-0.01-1.15-0.01-2.29,0-3.44c0-0.24-0.05-0.3-0.28-0.37
						c-0.86-0.25-1.78-0.53-2.7-0.86c-0.4-0.14-0.69-0.51-0.81-0.78c-0.17-0.36-0.32-0.73-0.47-1.1c-0.14-0.35-0.29-0.71-0.45-1.06
						c-0.21-0.44-0.2-0.83,0.04-1.26c0.37-0.67,0.72-1.35,1.07-2.04l0.18-0.35c0.05-0.09,0.08-0.18,0.12-0.28
						c-0.07-0.1-0.13-0.2-0.19-0.27c-0.33-0.33-0.66-0.66-0.99-0.99c-0.46-0.45-0.91-0.91-1.35-1.37c-0.21-0.22-0.31-0.24-0.58-0.09
						c-0.73,0.4-1.6,0.87-2.47,1.29c-0.38,0.18-0.84,0.12-1.13,0.02c-0.72-0.26-1.46-0.56-2.21-0.91c-0.26-0.12-0.61-0.4-0.75-0.78
						c-0.31-0.87-0.61-1.8-0.88-2.75c-0.06-0.23-0.17-0.3-0.37-0.27c-1.16,0-2.32,0-3.48,0c-0.21,0.01-0.27,0.04-0.34,0.26
						c-0.23,0.77-0.54,1.78-0.9,2.79c-0.12,0.35-0.45,0.63-0.72,0.75c-0.76,0.35-1.52,0.66-2.25,0.93c-0.27,0.1-0.72,0.15-1.09-0.02
						c-0.93-0.44-1.83-0.93-2.52-1.31c-0.25-0.13-0.33-0.11-0.5,0.06c-0.8,0.82-1.61,1.63-2.43,2.43c-0.19,0.18-0.19,0.26-0.08,0.45
						c0.41,0.74,0.88,1.62,1.3,2.52c0.17,0.37,0.14,0.83,0.03,1.13c-0.14,0.38-0.3,0.76-0.45,1.13c-0.15,0.35-0.29,0.69-0.42,1.05
						c-0.17,0.46-0.46,0.73-0.91,0.87c-0.39,0.12-0.77,0.24-1.16,0.36c-0.49,0.16-0.98,0.31-1.48,0.46C1.06,32.59,1,32.65,1,32.94
						c0.01,1.13,0.01,2.26,0,3.38c0,0.28,0.06,0.34,0.29,0.41c0.91,0.26,1.82,0.55,2.7,0.86c0.31,0.11,0.62,0.39,0.76,0.71
						c0.34,0.74,0.67,1.55,0.99,2.38c0.12,0.31,0.1,0.71-0.04,1c-0.39,0.81-0.82,1.63-1.31,2.51c-0.14,0.25-0.11,0.33,0.06,0.5
						c0.82,0.8,1.63,1.61,2.43,2.43c0.17,0.17,0.25,0.19,0.45,0.07c0.92-0.5,1.76-0.94,2.56-1.33c0.32-0.16,0.73-0.12,1-0.02
						c0.34,0.13,0.68,0.28,1.02,0.42c0.42,0.18,0.84,0.36,1.27,0.52c0.44,0.16,0.7,0.43,0.83,0.87c0.11,0.38,0.23,0.75,0.35,1.12
						c0.16,0.5,0.32,1.01,0.47,1.52c0.07,0.23,0.14,0.26,0.37,0.28C15.82,50.57,16.42,50.57,17.02,50.57z"/>
				</g>
			</g>
		</g>
		<g class="st2">
			<g id="C87aPw.tif_17_">
				<g>
					<path class="st3" d="M43.57,35.28c-0.16,0-0.32-0.03-0.49-0.1c-0.85-0.33-1.71-0.64-2.57-0.96c-0.56-0.2-0.84-0.63-0.79-1.22
						c0.03-0.42,0.05-0.84,0.07-1.26c0.02-0.32,0.03-0.63,0.05-0.95c0-0.08,0-0.08-0.06-0.14c-0.3-0.25-0.58-0.52-0.86-0.78
						c-0.21-0.2-0.41-0.39-0.63-0.58l-0.09-0.04c-0.74,0.07-1.49,0.17-2.24,0.28c-0.59,0.09-1.03-0.16-1.27-0.71
						c-0.37-0.83-0.75-1.67-1.14-2.49c-0.26-0.55-0.15-1.06,0.31-1.46c0.56-0.49,1.12-0.98,1.65-1.5c0.02-0.76,0-1.43-0.05-2.1
						c0-0.03-0.03-0.09-0.05-0.12c-0.57-0.47-1.15-0.93-1.75-1.37c-0.34-0.25-0.69-0.71-0.41-1.44c0.32-0.84,0.63-1.68,0.94-2.53
						c0.21-0.58,0.64-0.87,1.25-0.82c0.4,0.03,0.8,0.05,1.2,0.07c0.33,0.02,0.67,0.03,1,0.05c0.09,0.01,0.11,0,0.18-0.08
						c0.21-0.24,0.42-0.47,0.64-0.71c0.21-0.22,0.42-0.45,0.62-0.68c0.05-0.06,0.08-0.16,0.08-0.2c-0.06-0.76-0.17-1.51-0.27-2.21
						c-0.06-0.41,0.02-0.96,0.71-1.27c0.83-0.37,1.67-0.75,2.49-1.14c0.55-0.26,1.05-0.15,1.46,0.32c0.49,0.56,0.98,1.12,1.5,1.65
						c0.03,0.03,0.18,0.05,0.28,0.05c0.56,0,1.16-0.02,1.77-0.07c0.04,0,0.11-0.03,0.13-0.05c0.49-0.58,0.96-1.2,1.42-1.81
						c0.35-0.46,0.83-0.6,1.36-0.4c0.87,0.33,1.74,0.65,2.62,0.97c0.56,0.21,0.83,0.63,0.79,1.22c-0.06,0.77-0.09,1.53-0.1,2.26
						c0,0.02,0.04,0.1,0.08,0.15c0.45,0.45,0.91,0.87,1.35,1.25c0.06,0.05,0.16,0.09,0.2,0.09c0.74-0.06,1.47-0.17,2.16-0.27
						c0.64-0.1,1.11,0.17,1.37,0.77c0.2,0.47,0.42,0.93,0.63,1.4c0.16,0.34,0.32,0.68,0.47,1.03c0.07,0.16,0.11,0.33,0.13,0.47
						l0.1,0.42l-0.3,0.33c-0.09,0.1-0.17,0.18-0.25,0.26l-0.24,0.22c-0.46,0.42-0.91,0.84-1.38,1.24c-0.08,0.07-0.08,0.08-0.07,0.18
						c0.03,0.32,0.04,0.64,0.05,0.97c0.01,0.3,0.02,0.61,0.04,0.91c0.01,0.08,0.05,0.17,0.08,0.2c0.59,0.5,1.22,0.97,1.75,1.37
						c0.48,0.36,0.62,0.84,0.41,1.4c-0.32,0.85-0.65,1.71-0.96,2.57c-0.14,0.4-0.48,0.86-1.26,0.8c-0.74-0.05-1.48-0.09-2.22-0.1
						c-0.02,0-0.08,0.04-0.11,0.07c-0.47,0.47-0.92,0.95-1.34,1.44c-0.02,0.02-0.05,0.09-0.05,0.12c0.07,0.74,0.16,1.47,0.27,2.21
						c0.11,0.76-0.32,1.12-0.69,1.28c-0.85,0.38-1.69,0.76-2.53,1.16c-0.37,0.18-0.92,0.27-1.42-0.31c-0.49-0.56-0.98-1.12-1.5-1.65
						c-0.01-0.01-0.13-0.04-0.12-0.03c-0.67,0-1.34,0.03-2.02,0.08c-0.02,0-0.07,0.02-0.09,0.04c-0.46,0.56-0.92,1.15-1.36,1.75
						C44.25,35.11,43.93,35.28,43.57,35.28z M38.2,28.25c0.3,0,0.59,0.15,0.75,0.29c0.22,0.2,0.44,0.4,0.65,0.61
						c0.27,0.25,0.53,0.51,0.81,0.74c0.31,0.26,0.44,0.57,0.42,0.97c-0.02,0.31-0.03,0.62-0.05,0.93c-0.02,0.43-0.04,0.85-0.07,1.28
						c-0.01,0.15,0,0.17,0.13,0.21c0.87,0.31,1.73,0.63,2.59,0.96c0.14,0.05,0.16,0.06,0.27-0.09c0.45-0.61,0.92-1.21,1.41-1.8
						c0.18-0.21,0.48-0.37,0.78-0.39c0.69-0.05,1.39-0.08,2.08-0.08c0.29,0.01,0.64,0.13,0.84,0.34c0.53,0.55,1.04,1.12,1.54,1.69
						c0.11,0.12,0.12,0.12,0.24,0.06c0.84-0.4,1.69-0.79,2.55-1.17c0.12-0.05,0.13-0.06,0.11-0.22c-0.11-0.75-0.21-1.51-0.28-2.26
						c-0.03-0.29,0.09-0.64,0.29-0.87c0.44-0.51,0.91-1.01,1.39-1.49c0.17-0.17,0.5-0.36,0.83-0.36c0.76,0.01,1.52,0.05,2.28,0.1
						c0.18,0.01,0.2-0.01,0.25-0.15c0.31-0.87,0.63-1.73,0.96-2.59c0.05-0.14,0.05-0.16-0.07-0.24c-0.54-0.41-1.18-0.89-1.8-1.41
						c-0.28-0.24-0.41-0.62-0.43-0.88c-0.03-0.32-0.04-0.64-0.05-0.97c-0.01-0.3-0.02-0.61-0.04-0.91c-0.04-0.42,0.1-0.74,0.41-1.02
						c0.46-0.4,0.91-0.81,1.36-1.22l0.24-0.22c0.05-0.04,0.09-0.09,0.13-0.13c-0.02-0.07-0.03-0.14-0.05-0.19
						c-0.15-0.34-0.31-0.68-0.46-1.01c-0.22-0.47-0.44-0.94-0.64-1.42c-0.08-0.19-0.11-0.2-0.3-0.17c-0.71,0.11-1.46,0.21-2.23,0.28
						c-0.37,0.03-0.73-0.15-0.93-0.32c-0.47-0.39-0.94-0.83-1.41-1.31c-0.18-0.18-0.38-0.51-0.38-0.87
						c0.01-0.75,0.04-1.54,0.11-2.33c0.01-0.14,0-0.16-0.14-0.21c-0.88-0.32-1.75-0.65-2.62-0.97c-0.11-0.04-0.13-0.04-0.21,0.07
						c-0.47,0.63-0.96,1.25-1.46,1.86c-0.22,0.27-0.58,0.38-0.82,0.4c-0.68,0.05-1.34,0.06-1.96,0.07c-0.25,0-0.63-0.09-0.88-0.35
						c-0.53-0.55-1.03-1.12-1.53-1.69c-0.12-0.14-0.14-0.13-0.28-0.07c-0.83,0.39-1.67,0.78-2.51,1.15
						c-0.15,0.07-0.15,0.08-0.13,0.21c0.1,0.71,0.21,1.48,0.28,2.27c0.03,0.31-0.1,0.67-0.31,0.93c-0.21,0.25-0.43,0.49-0.66,0.72
						c-0.21,0.22-0.42,0.44-0.61,0.67c-0.27,0.32-0.6,0.46-1.01,0.43c-0.33-0.02-0.66-0.04-0.98-0.05
						c-0.41-0.02-0.82-0.04-1.23-0.07c-0.16-0.01-0.17-0.01-0.23,0.16c-0.31,0.85-0.62,1.71-0.95,2.55
						c-0.06,0.17-0.05,0.18,0.07,0.27c0.61,0.45,1.21,0.92,1.8,1.41c0.22,0.19,0.39,0.51,0.41,0.81c0.05,0.66,0.07,1.34,0.08,2.08
						c0,0.29-0.13,0.62-0.34,0.82c-0.55,0.52-1.11,1.03-1.69,1.53c-0.13,0.12-0.13,0.14-0.07,0.28c0.39,0.83,0.78,1.67,1.15,2.51
						c0.06,0.15,0.08,0.15,0.21,0.13c0.77-0.11,1.53-0.21,2.3-0.28C38.14,28.25,38.17,28.25,38.2,28.25z"/>
				</g>
			</g>
		</g>
	</g>
</g>
</svg>
