<?xml version="1.0" encoding="utf-8"?>
<!-- Generator: Adobe Illustrator 22.1.0, SVG Export Plug-In . SVG Version: 6.00 Build 0)  -->
<svg version="1.1" id="Layer_1" xmlns="http://www.w3.org/2000/svg" xmlns:xlink="http://www.w3.org/1999/xlink" x="0px" y="0px"
	 viewBox="0 0 60 60" style="enable-background:new 0 0 60 60;" xml:space="preserve">
<style type="text/css">
	.st0{opacity:0.7;}
	.st1{fill:none;stroke:#567986;stroke-miterlimit:10;}
	.st2{opacity:0.54;fill:none;stroke:#333333;stroke-miterlimit:10;}
</style>
<g id="XMLID_140_" class="st0">
	<circle id="XMLID_167_" class="st1" cx="30" cy="30" r="26.42"/>
	<path id="XMLID_153_" class="st2" d="M12.03,49.26c2.37-1.78,4.59-2.7,7.3-3.81c0.69-0.28,1.37-0.59,2-0.96
		c0.49-0.29,0.98-0.65,1.35-1.08c0.27-0.32,0.46-0.79,0.5-1.2c0.09-0.99,0.08-1.99,0.08-2.99c0-0.23-0.09-0.51-0.22-0.69
		c-1.02-1.35-1.7-2.85-2.15-4.47c-0.07-0.25-0.25-0.52-0.46-0.69c-1.55-1.31-2.19-4.11-1.24-5.8c0.24-0.42,0.24-0.78,0.15-1.22
		c-0.55-2.53-0.82-5.08-0.39-7.66c0.48-2.86,1.74-5.22,4.34-6.67c2.47-1.38,5.17-1.71,7.95-1.38c1.52,0.18,2.92,0.67,4.03,1.81
		c0.16,0.16,0.45,0.2,0.69,0.27c2.1,0.57,3.57,1.87,4.25,3.91c0.38,1.13,0.58,2.36,0.67,3.55c0.15,2.18-0.24,4.33-0.78,6.44
		c-0.06,0.22-0.07,0.52,0.03,0.71c1.03,2.01,0.5,4.65-1.24,6.11c-0.16,0.14-0.27,0.37-0.36,0.57c-0.47,1.13-0.73,2.41-1.42,3.38
		c-0.83,1.17-0.98,2.35-0.89,3.66c0.02,0.25,0.03,0.51,0.01,0.76c-0.06,0.92,0.34,1.65,1.08,2.12c0.85,0.54,1.74,1.04,2.66,1.44
		c2.72,1.17,5.57,2.05,7.99,3.89"/>
</g>
</svg>
