<?xml version="1.0" standalone="no"?>
<!DOCTYPE svg PUBLIC "-//W3C//DTD SVG 1.1//EN" "http://www.w3.org/Graphics/SVG/1.1/DTD/svg11.dtd" >
<svg xmlns="http://www.w3.org/2000/svg">
<metadata>Generated by IcoMoon</metadata>
<defs>
<font id="icomoon" horiz-adv-x="1024">
<font-face units-per-em="1024" ascent="960" descent="-64" />
<missing-glyph horiz-adv-x="1024" />
<glyph unicode="&#x20;" horiz-adv-x="512" d="" />
<glyph unicode="&#xe900;" glyph-name="delete" d="M869.547 784.214h-187.733v35.84c0 40.107-35.84 75.947-75.947 75.947h-187.733c-40.107 0-75.947-35.84-75.947-75.947v-35.84h-187.733v-35.84h35.84l35.84-701.44c4.267-49.493 44.373-89.6 93.867-89.6h379.733c49.067 0 89.6 40.107 93.867 89.6l35.84 701.867h40.107v35.413zM382.293 820.054c0 22.187 17.92 35.84 35.84 35.84h187.733c22.187 0 35.84-17.92 35.84-35.84v-35.84h-259.413v35.84zM757.76 46.934c0-31.147-26.88-53.76-58.027-53.76h-379.733c-31.147 0-53.76 22.187-58.027 53.76l-31.573 697.173h563.2l-35.84-697.173zM529.92 69.12h-35.84v603.307h35.84v-603.307zM641.707 69.12h-35.84l35.84 599.040h35.84l-35.84-599.040zM382.293 69.12l-40.107 603.307h35.84l40.107-603.307h-35.84z" />
<glyph unicode="&#xe901;" glyph-name="select" d="M593.493 742.4c0-48.213-21.76-90.88-55.040-120.747v59.307c0 1.28-0.427 2.56-0.427 3.84 9.387 17.067 15.36 36.693 15.36 57.6 0 73.813-66.133 132.267-142.507 119.467-46.507-8.107-85.333-44.373-96.427-90.027-9.813-39.253 0.853-75.52 21.76-102.827v-55.893c-48.64 35.84-76.8 98.133-61.867 165.973 13.227 58.88 60.587 107.093 119.467 120.747 105.387 23.893 199.68-55.893 199.68-157.44zM804.693-50.773l3.413 11.52c9.813 33.28 59.307 201.813 59.307 265.387v209.067c0 37.12-29.867 66.987-66.56 66.987-21.76 0-41.387-10.667-53.333-27.307v10.24c0 37.12-29.867 66.987-66.56 66.987-21.76 0-41.387-10.667-53.333-27.307v0c0 37.12-29.867 66.987-66.56 66.987-21.76 0-41.387-10.667-53.333-27.307v147.627c0 37.12-29.867 66.987-66.56 66.987s-66.133-29.867-66.133-66.987v-425.813l-109.227 124.587c-12.373 11.947-29.013 18.347-46.507 18.347-17.92-0.427-34.56-7.253-46.507-19.2-12.8-12.8-29.867-41.813-0.853-93.013 34.56-60.587 72.107-118.187 106.24-169.813 24.747-37.547 47.787-72.96 65.28-102.827 8.107-14.080 23.467-46.933 36.267-72.96l10.667-22.187h414.293zM410.453-18.773l-1.707 3.84c-12.8 26.88-28.587 60.16-37.12 75.52-17.92 30.72-41.387 66.56-66.987 105.387-32.853 50.347-70.4 107.52-104.533 167.253-14.080 25.173-15.787 43.52-4.693 54.613 6.4 6.4 14.933 9.813 23.893 9.813 9.387 0 17.92-3.413 24.747-9.813l118.187-135.253c6.827-8.107 18.347-11.093 28.16-7.253s16.64 13.227 16.64 23.893v442.88c0 19.2 15.36 34.987 34.56 34.987s34.56-15.787 34.56-34.987v-286.293c0-14.080 11.52-25.6 25.6-25.6s25.6 11.52 25.6 25.6v99.84c0 19.2 15.36 34.987 34.56 34.987s34.56-15.787 34.56-34.987v-139.52c0-14.080 11.52-25.6 25.6-25.6s25.6 11.52 25.6 25.6v99.413c0 19.2 15.36 34.987 34.56 34.987 18.773 0 34.56-15.787 34.56-34.987v-139.52c0-14.080 11.52-25.6 25.6-25.6s25.6 11.52 25.6 25.6v89.173c0 19.2 15.36 34.987 34.56 34.987s34.56-15.787 34.56-34.987v-209.067c0-44.373-28.587-157.013-54.613-244.907-1.28 0-357.12 0-372.053 0zM386.56 273.494v0c0 0 0 0 0 0z" />
<glyph unicode="&#xe902;" glyph-name="virtual_terminal" d="M887.040 122.454h-750.080v608.427h750.080v-608.427zM179.627 165.12h664.747v523.093h-664.747v-523.093zM651.093 379.307c0 11.947-9.387 21.333-21.333 21.333h-141.653c-11.947 0-21.333-9.387-21.333-21.333s9.387-21.333 21.333-21.333h141.653c11.947 0 21.333 9.813 21.333 21.333zM468.48 482.987c0-11.947-4.693-21.333-14.080-28.16l-159.573-102.827c-4.693-2.56-8.533-3.84-11.947-3.84-6.4 0-11.947 4.267-16.213 12.8-2.133 4.693-3.413 8.96-3.413 13.227 0 7.253 3.84 13.653 11.52 18.773l136.96 88.32-136.533 86.613c-8.107 5.547-12.373 12.373-12.373 20.053 0 4.267 1.28 8.533 3.413 13.227 4.693 8.533 10.24 12.8 17.067 12.8 3.413 0 7.253-1.28 11.52-3.84l159.573-101.973c9.387-6.827 14.080-14.933 14.080-25.173z" />
<glyph unicode="&#xe903;" glyph-name="transaction_console" d="M745.387 474.027c0-11.947-9.387-21.333-21.333-21.333h-329.813c-11.947 0-21.333 9.387-21.333 21.333s9.387 21.333 21.333 21.333h330.24c11.52 0 20.907-9.813 20.907-21.333zM724.053 401.067h-188.587c-11.947 0-21.333-9.387-21.333-21.333s9.387-21.333 21.333-21.333h188.587c11.947 0 21.333 9.387 21.333 21.333s-9.387 21.333-21.333 21.333zM981.333 190.72c0-11.947-9.387-21.333-21.333-21.333h-896c-11.947 0-21.333 9.387-21.333 21.333s9.387 21.333 21.333 21.333h81.92c-5.547 10.667-8.96 23.040-8.96 35.84v357.12c0 43.52 35.413 78.507 78.507 78.507h592.64c43.52 0 78.507-35.413 78.507-78.507v-357.12c0-12.8-3.413-25.173-8.96-35.84h81.92c12.373 0 21.76-9.387 21.76-21.333zM808.533 212.054c19.627 0 35.84 16.213 35.84 35.84v357.12c0 19.627-16.213 35.84-35.84 35.84h-593.067c-19.627 0-35.84-16.213-35.84-35.84v-357.12c0-19.627 16.213-35.84 35.84-35.84h593.067z" />
<glyph unicode="&#xe904;" glyph-name="hellopayments_express" d="M964.952 426.667c0-202.824-165.076-367.395-367.395-367.395-138.397 0-263.719 77.505-327.133 202.322-6.547 12.58-1.508 28.186 11.573 34.722 12.58 6.547 28.186 1.508 34.722-11.573 54.35-107.194 162.059-173.633 280.827-173.633 174.135 0 316.063 141.927 316.063 316.063s-141.927 316.063-316.063 316.063c-103.172 0-200.3-51.334-259.689-137.894-8.055-12.077-24.153-15.097-35.731-7.049s-14.591 23.65-6.547 35.731c68.952 100.156 181.688 160.548 301.963 160.548 202.322-0.503 367.395-165.076 367.395-367.9zM338.367 483.538c0 14.088-11.573 25.666-25.666 25.666h-227.984c-14.088 0-25.666-11.072-25.666-25.666 0-14.088 11.573-25.666 25.666-25.666h227.984c14.088 0 25.666 11.573 25.666 25.666zM338.367 369.796c0 14.088-11.573 25.666-25.666 25.666h-113.741c-14.088 0-25.666-11.573-25.666-25.666s11.573-25.666 25.666-25.666h113.741c14.088 0 25.666 11.573 25.666 25.666zM585.477 373.321c0.503-0.503 1.005 0 1.508-0.503 4.021-2.011 8.055-3.519 12.077-3.519 0 0 0 0 0 0s0 0 0 0 0 0 0 0c4.021 0 7.552 1.005 11.072 3.016 1.005 0.503 2.011 1.508 3.016 2.011 1.508 1.005 3.016 1.508 4.021 2.513l129.849 129.849c10.065 10.065 10.065 26.172 0 36.236s-26.172 10.065-36.236 0l-115.751-115.751-126.822 79.019c-12.077 7.552-28.186 4.021-35.731-8.055s-4.021-28.186 8.055-35.731l144.944-89.084z" />
<glyph unicode="&#xe905;" glyph-name="up-down" horiz-adv-x="731" d="M180.932 358.857l-182.857 182.857h735.278l-182.857-182.857c-100.475-100.475-183.627-182.857-184.782-182.857s-84.307 82.382-184.782 182.857z" />
<glyph unicode="&#xe906;" glyph-name="ico-up" horiz-adv-x="731" d="M180.932 537.143l-182.857-182.857h735.278l-182.857 182.857c-100.475 100.475-183.627 182.857-184.782 182.857s-84.307-82.382-184.782-182.857z" />
<glyph unicode="&#xe907;" glyph-name="ico-up-down" horiz-adv-x="731" d="M180.932 777.143l-182.857-182.857h735.278l-182.857 182.857c-100.475 100.475-183.627 182.857-184.782 182.857s-84.307-82.382-184.782-182.857zM182.087 118.087l183.627-184.012 183.627 184.012 184.012 183.627h-735.278l184.012-183.627z" />
<glyph unicode="&#xe908;" glyph-name="dollar" d="M501.842 848.013c-216.047-5.477-389.856-182.651-389.856-400.013 0-220.803 179.201-400.013 400.013-400.013s400.013 179.201 400.013 400.013c0 220.803-179.201 400.013-400.013 400.013-3.45 0-6.727 0.083-10.158 0zM501.454 779.262c3.543 0.116 6.977 0 10.546 0 182.851 0 331.262-148.4 331.262-331.262s-148.4-331.262-331.262-331.262c-182.851 0-331.262 148.4-331.262 331.262 0 179.287 142.792 325.616 320.714 331.262zM432.563 363.712c25.763-36.031 104.387-38.629 131.378-23.354 9.91 5.609 12.378 21.832 12.378 32.835 0 7.551-1.984 13.478-5.965 17.797-4.194 4.319-14.872 15.27-27.23 18.502-62.706 16.176-106.144 36.385-123.145 51.061-21.195 18.333-24.623 30.317-24.623 62.239s9.175 58.684 29.931 77.887c20.755 19.2 50.89 28.8 90.418 28.8 37.756 0 90.855-9.971 116.742-40.697l-43.167-46.953c-24.341 20.434-42.448 22.279-72.256 22.28-18.772 0-28.534-2.696-36.481-8.087-7.948-5.177-11.928-11.978-11.928-20.383 0-7.551 3.641-13.809 10.925-18.774 7.282-5.177 26.33-12.942 64.307-23.299 42.616-11.65 71.536-25.78 86.777-42.388 15.017-16.615 22.526-38.729 22.526-66.335 0-33.231-11.703-60.626-35.107-82.191-23.177-21.579-51.726-38.337-92.786-38.337-52.865 0-123.428 18.679-142.894 53.189zM491.684 687.066v-85.546h40.632v85.546h-40.632zM491.684 285.888v-76.954h40.632v76.954h-40.632z" />
<glyph unicode="&#xe909;" glyph-name="stats-dots" d="M236 172h644.007v-92h-736.010v736.010h92zM351 218c-38.088 0-69 30.912-69 69s30.912 69 69 69c2.024 0 4.048-0.092 6.026-0.276l74.152 123.602c-7.084 10.81-11.178 23.782-11.178 37.674 0 38.088 30.912 69 69 69s69-30.912 69-69c0-13.892-4.14-26.818-11.178-37.674l74.152-123.602c1.978 0.184 4.002 0.276 6.026 0.276 1.518 0 3.036-0.046 4.554-0.184l122.452 214.268c-7.59 11.086-12.006 24.472-12.006 38.87 0 38.088 30.912 69 69 69s69-30.912 69-69c0-38.088-30.912-69-69-69-1.518 0-3.036 0.046-4.554 0.184l-122.452-214.268c7.59-11.086 12.006-24.472 12.006-38.87 0-38.088-30.912-69-69-69s-69 30.912-69 69c0 13.892 4.14 26.818 11.178 37.674l-74.152 123.602c-1.978-0.184-4.002-0.276-6.026-0.276s-4.048 0.092-6.026 0.276l-74.152-123.602c7.084-10.81 11.178-23.782 11.178-37.674 0-38.088-30.912-69-69-69z" />
<glyph unicode="&#xe90a;" glyph-name="copy" d="M614 652v204h-357l-153-153v-459h306v-204h510v612.001h-306zM257 783.886v-80.886h-80.886l80.886 80.886zM155 295v357h153v153h255v-153l-153-153v-204h-255zM563 579.886v-80.886h-80.886l80.886 80.886zM869 91h-408v357h153v153h255v-510z" />
<glyph unicode="&#xe90b;" glyph-name="paste" d="M650 724h-92v46c0 25.3-20.7 46-46 46h-92c-25.3 0-46-20.7-46-46v-46h-92v-92h368v92zM512 724h-92v45.908c0.046 0.046 0.046 0.046 0.092 0.092h91.816c0.046-0.046 0.046-0.046 0.092-0.092v-45.908zM742 586v115c0 12.65-10.35 23-23 23h-46v-46h23v-92h-138l-138-138v-184h-184v414h23v46h-46c-12.65 0-23-10.35-23-23v-460.001c0-12.65 10.35-23 23-23h207v-138h460.001v506.001h-138zM558 520.956v-72.956h-72.956l72.956 72.956zM834 126h-368v276h138v138h230v-414z" />
<glyph unicode="&#xe90c;" glyph-name="filter" d="M512 776c-181.138 0-328-45.879-328-102.5v-61.5l246-246v-205c0-22.632 36.695-41 82-41s82 18.368 82 41v205l246 246v61.5c0 56.621-146.862 102.5-328 102.5zM244.475 687.071c15.334 8.733 36.9 17.056 62.32 24.026 56.334 15.416 129.232 23.903 205.205 23.903s148.871-8.487 205.205-23.903c25.42-6.97 46.986-15.252 62.32-24.026 10.127-5.781 15.58-10.66 18.122-13.571-2.542-2.911-7.995-7.79-18.122-13.571-15.334-8.733-36.9-17.056-62.32-24.026-56.334-15.416-129.232-23.903-205.205-23.903s-148.871 8.487-205.205 23.903c-25.42 6.97-46.986 15.252-62.32 24.026-10.127 5.781-15.58 10.66-18.122 13.571 2.542 2.911 7.995 7.79 18.122 13.571z" />
<glyph unicode="&#xe90d;" glyph-name="upload3" d="M488.567 307.423h-351.435v-187.435h702.87v187.435h-351.435zM793.146 213.71h-93.714v46.855h93.714v-46.855zM301.14 588.577l187.435 187.435 187.435-187.435h-117.145v-234.29h-140.577v234.29z" />
<glyph unicode="&#xe90e;" glyph-name="download3" d="M676 494.855l-187.435-187.435-187.435 187.435h117.145v281.145h140.576v-281.145zM488.567 307.424h-351.435v-187.435h702.868v187.435h-351.435zM793.145 213.71h-93.711v46.855h93.711v-46.855z" />
<glyph unicode="&#xe916;" glyph-name="manage_merchant" d="M896 649.814c0 8.96-5.547 16.64-13.227 19.627l-65.28 168.96h-610.987l-66.987-169.813c-6.827-3.84-11.52-10.667-11.52-18.773 0-2.56 0.427-5.12 1.28-7.253l-1.28-627.627h768v620.373l-2.133 5.547c1.28 2.987 2.133 5.973 2.133 8.96zM170.667 628.48h187.733c-2.987-3.84-5.12-8.107-5.12-13.227 0-49.92-40.533-90.453-90.453-90.453s-90.027 40.533-90.027 90.453c0 2.987-0.853 5.973-2.133 8.96v4.267zM235.52 795.734h552.96l49.067-124.587h-651.093l49.067 124.587zM836.267 628.48c-2.987-3.84-5.12-8.107-5.12-13.227 0-49.92-40.533-90.453-90.453-90.453s-90.453 40.533-90.453 90.453c0 5.12-2.133 9.813-5.12 13.227h191.147zM597.333 628.48c-2.987-3.84-5.12-8.107-5.12-13.227 0-49.92-40.533-90.453-90.453-90.453s-90.027 40.533-90.027 90.453c0 5.12-2.133 9.813-5.12 13.227h190.72zM170.667 57.6v462.080c23.893-23.040 56.32-37.547 92.16-37.547 52.907 0 98.133 31.147 119.467 75.52 21.333-44.373 66.56-75.52 119.467-75.52s98.133 31.147 119.467 75.52c21.333-44.8 66.56-75.52 119.467-75.52 47.787 0 89.173 25.173 112.64 63.147v-487.68h-682.667z" />
<glyph unicode="&#xe917;" glyph-name="manage_reseller" d="M720.213 605.014c17.92-22.187 42.24-38.827 70.4-46.080 11.52-2.987 23.040-4.267 34.56-4.267 59.733 0 114.773 40.107 130.56 100.693 9.387 34.987 4.267 71.253-14.080 102.4s-47.36 52.907-82.347 62.293c-34.987 9.387-71.253 4.267-102.4-14.080s-53.333-47.36-62.72-82.347c-7.253-27.307-5.547-55.893 4.267-81.92l-311.467-181.333c-15.36 74.24-81.067 129.707-159.573 129.707-90.027 0-163.413-73.387-163.413-163.413s73.387-163.413 163.413-163.413c75.947 0 139.52 52.48 157.867 122.88l298.24-173.653c-9.813-25.6-12.373-54.187-5.12-82.773 9.387-34.987 31.573-64 62.72-82.347 20.907-12.373 44.373-18.347 67.84-18.347 11.52 0 23.040 1.707 34.56 4.693 34.987 8.96 64 31.573 82.347 62.72s23.040 67.413 14.080 102.4c-8.96 34.987-31.573 64-62.72 82.347-31.147 17.92-67.413 23.040-102.4 14.080v0c-28.587-7.68-52.48-23.893-69.547-45.227l-297.813 173.227 312.747 181.76zM785.493 253.44c23.893 6.4 48.64 2.987 69.973-9.387s36.693-32.427 42.667-56.32 2.987-48.64-9.387-69.973-32.427-36.693-56.32-42.667c-23.893-6.4-48.64-2.987-69.973 9.387s-36.693 32.427-42.667 56.32c-6.4 24.32-2.56 49.067 9.387 69.547 0 0.427 0.427 0.427 0.427 0.427 0 0.427 0 0.427 0.427 0.853 11.947 19.627 31.147 35.413 55.467 41.813zM735.573 712.96c6.4 23.893 21.333 43.947 42.667 56.32s46.080 15.787 69.973 9.387c23.893-6.4 43.947-21.333 56.32-42.667s15.787-46.080 9.387-69.973c-12.8-49.067-63.573-78.933-113.067-65.707-48.64 12.8-78.507 63.573-65.28 112.64zM227.413 305.92c-66.56 0-120.747 54.187-120.747 120.747s54.187 120.747 120.747 120.747c66.56 0 120.747-54.187 120.747-120.747s-53.76-120.747-120.747-120.747z" />
<glyph unicode="&#xe918;" glyph-name="preferences" d="M663.040 352.854c-60.587 0-110.933-43.947-120.747-101.547h-445.44v-42.667h445.013c10.24-57.6 60.16-101.547 120.747-101.547s110.933 43.947 120.747 101.547h143.36v42.667h-143.36c-9.387 57.6-59.733 101.547-120.32 101.547zM663.040 149.334c-44.373 0-80.213 35.84-80.213 80.213v0.427c0 44.373 36.267 80.213 80.213 80.213 44.373 0 80.213-36.267 80.213-80.213s-35.84-80.64-80.213-80.64zM488.533 645.12c-10.24 57.6-60.16 101.547-120.747 101.547-67.84 0-122.88-55.040-122.88-122.88v21.333h-148.053v-42.667h147.627v21.333c0-67.84 55.040-122.88 122.88-122.88 60.587 0 110.933 43.947 120.747 101.547h438.613v42.667h-438.187zM367.787 543.147c-44.373 0-80.213 36.267-80.213 80.213s35.84 80.64 80.213 80.64c44.373 0 80.213-36.267 80.213-80.213s-36.267-80.64-80.213-80.64z" />
<glyph unicode="&#xe919;" glyph-name="reports" d="M829.867 42.667h-635.733v768h636.16v-768zM236.8 85.334h550.827v682.667h-550.827v-682.667zM684.373 245.334c0 11.947-9.387 21.333-21.333 21.333h-302.080c-11.947 0-21.333-9.387-21.333-21.333s9.387-21.333 21.333-21.333h302.080c11.947 0 21.333 9.387 21.333 21.333zM684.373 366.080c0 11.947-9.387 21.333-21.333 21.333h-302.080c-11.947 0-21.333-9.387-21.333-21.333s9.387-21.333 21.333-21.333h302.080c11.947 0 21.333 9.813 21.333 21.333z" />
<glyph unicode="&#xe91a;" glyph-name="security2" d="M697.173 483.84h-41.387v225.707c0 79.36-64.427 143.787-143.787 143.787s-143.787-64.427-143.787-143.787v-225.707h-41.387c-31.147 0-56.747-25.6-56.747-56.747v-370.773c0-31.147 25.6-56.747 56.747-56.747h370.773c31.147 0 56.747 25.6 56.747 56.747v370.773c-0.427 31.573-25.6 56.747-57.173 56.747zM410.88 709.547c0 55.893 45.227 101.12 101.12 101.12s101.12-45.227 101.12-101.12v-225.707h-202.24v225.707zM711.253 56.747c0-7.68-6.4-14.080-14.080-14.080h-370.347c-7.68 0-14.080 6.4-14.080 14.080v370.773c0 7.68 6.4 14.080 14.080 14.080h370.773c7.68 0 14.080-6.4 14.080-14.080v-370.773zM561.067 235.52c0-19.2-10.24-35.413-25.173-44.373 0-1.28 0.853-2.56 0.853-3.84v-52.053c0-14.080-11.093-25.6-24.32-25.6h-0.427c-13.227 0-24.32 11.52-24.32 25.6v52.48c0 1.28 0.427 2.56 0.853 3.84-14.933 8.96-25.173 25.173-25.173 44.373 0 28.587 21.76 51.627 49.067 51.627 26.453-0.427 48.64-23.467 48.64-52.053z" />
<glyph unicode="&#xe91b;" glyph-name="tools" d="M911.36 495.36c-20.053 5.973-43.947 12.8-66.987 20.907-3.84 1.28-8.107 5.547-10.24 10.24-4.267 8.533-7.68 17.493-11.52 26.453-3.84 8.533-7.68 17.493-11.947 26.453-2.56 5.547-2.56 9.387 0.427 14.933 8.96 16.213 17.92 32.853 26.453 49.493l5.12 9.813c1.707 2.987 2.56 5.973 4.267 9.387l3.413 7.68-1.707 2.56c-0.853 1.28-1.707 2.987-2.987 4.267-2.133 3.413-4.693 7.253-7.68 10.24-8.533 8.533-16.64 16.64-25.173 24.747-11.52 11.093-22.613 22.187-33.707 33.28-10.667 11.093-22.187 12.8-35.84 5.547-19.2-10.24-40.107-21.333-61.44-31.147-3.413-1.707-9.813-1.707-14.507 0-17.493 5.973-35.84 13.653-54.187 21.76-4.267 1.707-8.107 5.973-9.387 8.96-7.68 21.333-14.933 43.52-21.76 66.56-3.84 13.227-12.373 19.627-26.453 19.627 0 0 0 0 0 0-29.013 0-58.453 0-87.467 0 0 0 0 0 0 0-13.227 0-21.76-5.973-25.6-18.773-5.973-20.053-13.653-43.947-22.187-67.84-0.853-2.987-5.12-6.827-8.533-8.107-19.2-8.533-37.973-16.213-55.467-22.613-4.267-1.707-10.24-1.707-13.653 0-23.040 10.667-45.653 22.613-62.293 31.573-12.8 7.253-23.893 5.547-34.133-4.693-19.627-19.627-40.107-39.68-61.013-59.733-9.813-9.387-11.52-20.053-5.12-32 10.667-19.2 22.187-39.68 32.427-61.013 1.707-3.413 1.707-9.813 0-14.080-3.413-9.387-7.253-18.347-11.093-27.307-3.84-8.533-7.68-17.493-11.093-26.453-2.133-5.973-5.12-8.96-11.093-10.667-9.813-2.987-19.627-5.973-29.867-8.96-11.947-3.84-24.32-7.68-36.267-11.093-13.653-3.84-20.48-12.8-20.48-27.307 0.427-27.307 0.427-55.040 0-83.2 0-14.507 6.4-23.467 20.48-27.307 22.187-6.4 44.8-13.227 66.987-20.907 3.413-1.28 7.253-4.693 8.96-8.107 8.533-17.92 16.64-37.547 24.32-57.6 1.28-2.987 1.28-8.107-0.427-10.667-9.813-19.627-20.48-40.107-32.427-61.013-7.253-12.8-5.547-23.467 4.693-33.28 18.347-17.493 37.973-36.693 61.013-59.733 9.813-9.813 20.48-11.52 32.853-5.12 23.040 12.373 43.947 23.040 63.573 32.427 2.56 1.28 7.68 1.28 10.667 0 8.533-2.987 16.64-6.827 25.173-10.24 10.667-4.693 21.76-9.387 33.28-13.227 5.547-2.133 8.107-4.267 9.813-9.813 2.987-8.96 5.973-18.347 8.96-27.307 3.84-12.373 8.107-24.747 11.947-37.547 3.84-13.227 12.373-19.627 26.027-19.627 0 0 0.427 0 0.427 0 28.587 0.427 57.173 0.427 86.187 0 0 0 0.427 0 0.427 0 14.080 0 23.040 6.827 26.88 20.48 6.4 22.187 13.653 44.373 21.333 65.707 0.853 2.56 4.693 5.973 7.68 7.68 20.053 8.96 39.68 17.067 58.88 23.893 3.84 1.28 8.96 1.28 11.947 0 19.627-8.96 39.68-19.627 62.293-31.573 12.373-6.827 23.040-5.12 32.853 4.267 20.48 20.48 40.96 40.533 61.867 60.587 9.813 9.387 11.52 20.053 4.693 32.427-12.8 22.613-23.040 42.667-32.427 61.44-1.28 2.987-1.707 8.107 0 11.52 7.253 18.773 15.36 37.973 23.893 56.32 1.707 3.413 5.547 7.253 8.533 8.533 20.907 7.253 42.667 14.080 66.987 20.907 14.080 3.84 20.907 12.8 20.907 26.88-0.427 28.16 0 56.32 0 84.48-0.427 13.653-7.253 22.187-20.48 26.027zM887.893 400.214c0-4.267-0.427-5.12-4.693-6.4-11.093-3.413-22.187-6.827-33.707-10.24-10.667-3.413-20.907-6.4-31.573-9.387s-17.067-9.387-21.333-20.907c-8.96-23.467-18.773-47.36-30.72-72.533-5.12-10.667-4.693-19.2 0.427-28.587 5.12-8.96 9.813-18.347 14.507-27.307 5.547-10.24 10.667-20.48 16.64-30.72 2.56-4.693 2.56-6.827-2.133-10.667-12.373-11.52-24.32-23.040-35.84-34.987-3.84-3.84-5.547-4.267-10.24-1.707-9.813 5.12-19.627 10.24-29.867 15.36-9.813 5.12-19.627 9.813-29.013 15.36-9.387 4.693-17.92 5.12-28.587 0.427-25.173-11.093-50.347-21.333-75.52-30.72-8.107-2.987-16.64-7.68-20.48-20.053-2.987-10.667-6.4-20.907-9.813-31.573s-6.827-21.333-10.24-32c-1.28-4.267-2.56-4.693-6.4-4.693-20.053 0.427-37.973 0.427-54.187 0-4.693 0-5.547 0.427-7.253 5.547-2.987 10.24-6.4 20.48-9.813 30.293-3.413 10.667-6.827 21.333-10.24 32-3.84 12.8-12.373 17.493-21.333 20.907-12.8 4.693-25.6 10.24-37.973 15.36-11.947 5.12-24.32 10.24-36.267 14.507-4.267 1.707-9.387 2.56-14.933 2.56-4.267 0-8.107-0.427-11.52-2.133-22.187-9.813-43.52-21.333-59.733-30.293-5.973-3.413-8.533-2.987-13.227 2.133-11.093 11.947-23.040 23.467-34.987 34.133-4.267 3.84-4.267 5.547-1.28 10.667 5.12 9.387 10.24 18.347 14.933 27.733 5.12 9.813 10.24 19.2 15.787 29.013s5.547 18.347 0.427 29.44c-11.093 23.467-21.333 47.787-30.72 72.533-4.267 11.093-10.24 17.067-20.48 20.053-23.893 7.253-44.373 13.227-64.853 20.053-2.133 0.853-4.693 3.413-5.12 4.693-0.427 15.787-0.427 31.147-0.427 47.36v11.947l17.92 5.547c17.493 5.547 34.987 11.093 52.053 16.213 13.227 3.84 17.92 12.373 21.333 20.907 9.387 23.893 19.627 48.213 30.72 71.68 5.12 10.667 5.12 19.2 0 28.587-5.12 8.96-9.813 17.92-14.507 27.307-5.547 10.667-11.093 21.333-17.067 31.573-2.56 4.693-2.56 6.4 1.28 9.813 12.373 11.52 24.747 23.467 36.693 35.84 3.413 3.84 5.547 4.267 10.24 1.28 9.813-5.12 19.627-9.813 29.44-14.933s20.053-10.24 29.44-15.36c10.24-5.547 19.627-5.547 31.147 0 21.333 9.387 44.8 19.2 71.68 29.013 11.52 4.267 17.92 10.667 20.907 21.333 3.413 11.093 6.827 22.187 10.667 33.28 3.413 10.24 6.4 20.053 9.813 30.293 1.28 4.693 2.56 5.547 7.253 5.547 18.347-0.427 36.267-0.427 52.907 0 5.12 0 6.4-0.853 7.68-6.4 3.413-11.52 7.253-22.613 10.667-34.133 2.987-9.813 6.4-19.627 9.387-29.44s8.96-15.787 20.48-20.053c28.16-10.667 51.627-20.053 72.96-29.44 11.093-5.12 20.053-4.693 29.867 0.427s19.627 10.24 29.44 15.36c9.813 5.12 19.627 10.24 29.44 15.36 5.12 2.987 6.827 2.56 10.24-0.853 11.093-11.947 23.467-23.893 37.547-36.693 3.413-2.987 3.413-4.693 1.28-8.96-5.12-9.387-10.24-18.773-14.933-28.16-5.547-10.24-11.093-20.48-16.64-30.72-6.4-11.947-3.413-21.76 0-29.44 11.093-23.040 20.907-46.933 29.867-70.4 4.693-12.373 11.093-18.347 22.187-21.76 9.813-2.56 19.627-5.973 29.867-8.96 11.093-3.413 21.76-6.827 32.853-9.813 5.973-1.707 7.253-2.987 6.827-9.387 0-18.773 0.427-36.693 0.853-51.627z" />
<glyph unicode="&#xe91c;" glyph-name="clear" d="M512 928c-276.48 0-501.333-224.853-501.333-501.333s224.853-501.333 501.333-501.333 501.333 224.853 501.333 501.333-224.853 501.333-501.333 501.333zM719.36 279.894l-60.16-60.16-147.2 146.773-146.773-146.773-60.16 60.16 146.773 146.773-147.2 146.773 60.16 60.16 147.2-146.773 146.773 146.773 60.16-60.16-146.773-146.773 147.2-146.773z" />
<glyph unicode="&#xe91d;" glyph-name="password_hide" d="M161.28 807.68l731.733-731.733-30.293-30.293-731.733 731.733 30.293 30.293zM512 520.534c-0.853 0-2.133-0.427-2.987-0.427l92.587-92.587c3.84 50.773-38.827 93.013-89.6 93.013zM516.267 226.134c-110.933 0-200.533 89.6-200.533 200.533 0 30.72 7.68 59.733 20.053 85.76l-104.107 103.68c-78.933-48.213-148.48-107.093-210.347-176.64 0-8.533 0-17.067 0-25.6 64-72.533 140.8-136.533 226.133-187.733 140.8-78.933 281.6-96.853 422.4-47.787l-67.84 67.84c-26.027-12.373-54.613-20.053-85.76-20.053zM772.267 631.467c-141.227 75.947-279.467 89.173-417.28 42.667l69.973-69.973c27.307 14.080 58.027 23.040 91.307 23.040 106.667 0 196.267-89.6 196.267-200.533 0-32.427-8.107-62.293-20.907-89.173l99.413-99.413c80.64 49.067 148.48 108.8 211.627 180.053 0 4.267 0 12.8 0 21.333-64 76.8-140.8 140.8-230.4 192zM514.56 333.654l-96 96c0-0.853-0.427-2.133-0.427-2.987 0-51.2 42.667-89.6 89.6-93.867 2.56 0 4.693 0.427 6.827 0.853z" />
<glyph unicode="&#xe91e;" glyph-name="password_show" d="M21.333 439.467c68.267 76.8 145.067 140.8 234.667 192 170.667 93.867 341.333 93.867 516.267 0 89.6-51.2 166.4-115.2 230.4-192 0-8.533 0-17.067 0-21.333-68.267-76.8-140.8-140.8-230.4-192-174.933-102.4-349.867-98.133-524.8 0-85.333 51.2-162.133 115.2-226.133 187.733 0 8.533 0 17.067 0 25.6zM712.533 426.667c0 110.933-89.6 200.533-196.267 200.533-110.933 0-200.533-89.6-200.533-200.533s89.6-200.533 200.533-200.533 196.267 89.6 196.267 200.533zM512 520.534c-51.2 0-93.867-42.667-93.867-93.867s42.667-89.6 89.6-93.867c51.2 0 93.867 42.667 93.867 93.867 4.267 51.2-38.4 93.867-89.6 93.867z" />
<glyph unicode="&#xe91f;" glyph-name="phone" d="M752.64-43.52h-2.56c-342.613 18.773-665.6 328.107-704.853 674.987-2.987 26.453-2.56 52.48-2.133 72.533 0.427 13.653 5.973 28.587 15.36 40.107 52.053 64.853 118.187 113.493 196.267 144.64 27.307 11.093 55.893 10.667 79.787 0 23.467-11.093 41.813-32 51.2-59.307 19.627-57.6 39.253-115.627 57.173-173.653 19.627-63.573 6.4-98.987-50.773-135.253l-11.093-7.68c-8.107-5.12-16.213-10.24-24.32-15.36-6.4-4.267-7.68-6.827-7.68-7.253 0 0 0 0 0 0s0.853-2.133 2.987-5.547c60.16-87.040 130.987-158.293 211.2-212.907 7.68-5.12 11.093-5.973 11.947-5.973-0.427 0.427 3.413 2.987 10.24 13.653l24.32 37.973c26.88 41.813 67.413 58.453 111.787 46.080 69.12-19.627 135.68-40.96 197.547-62.72 23.893-8.533 43.093-25.6 53.76-48.64 10.667-23.467 11.52-51.2 2.133-75.947-32.427-84.907-83.627-154.027-151.893-205.227-15.787-11.947-35.84-12.8-51.627-13.227-5.12 0-10.667-0.427-15.36-0.853l-3.413-0.427zM295.68 841.387c-6.4 0-13.227-1.28-20.48-4.267-69.12-27.307-127.573-70.4-174.080-128-1.707-2.133-2.987-5.547-2.987-6.4-0.427-17.92-0.427-41.813 2.133-64.853 35.84-315.733 339.2-607.147 650.24-625.92 5.973 0.853 11.947 0.853 18.347 1.28 6.827 0.427 17.92 0.853 20.907 2.56 59.733 44.8 104.533 105.387 133.12 180.48 4.267 11.093 3.84 22.613-0.853 32.853-2.987 6.4-9.387 15.36-21.76 19.627-61.013 21.333-126.293 42.24-194.133 61.44-12.8 3.84-32 5.12-49.92-22.613l-24.32-37.973c-9.813-15.36-23.893-33.707-46.080-38.4-21.76-4.267-40.96 5.973-53.333 14.507-86.187 58.027-162.133 134.4-226.133 226.987-11.093 15.787-14.933 32-11.947 47.787 2.987 16.64 13.653 30.72 31.147 42.24 8.107 5.547 16.64 10.667 25.173 16.213l10.667 6.827c35.84 23.040 39.68 33.28 27.733 72.533-17.92 57.6-37.12 115.2-56.32 172.373-3.84 13.653-11.52 23.040-21.333 27.733-4.693 2.133-9.813 2.987-15.787 2.987z" />
</font>
</defs>
</svg>
